<svg xmlns="http://www.w3.org/2000/svg" width="68" height="68" viewBox="0 0 68 68" fill="none">
<mask id="path-1-inside-1_5346_151230" fill="white">
<path d="M34 -2.97237e-06C15.2223 -7.99948e-07 -1.33078e-06 15.2223 -2.97237e-06 34C-4.61397e-06 52.7777 15.2223 68 34 68C52.7777 68 68 52.7777 68 34C68 15.2223 52.7777 -1.33078e-06 34 -2.97237e-06Z"/>
</mask>
<path d="M34 -2.97237e-06L34 -4L34 -2.97237e-06ZM-2.97237e-06 34L-4 34L-2.97237e-06 34ZM34 68L34 72L34 68ZM68 34L72 34L68 34ZM34 -2.97237e-06L34 4C17.4315 4 4 17.4315 4 34L-2.97237e-06 34L-4 34C-4 13.0132 13.0132 -4 34 -4L34 -2.97237e-06ZM-2.97237e-06 34L4 34C4 50.5685 17.4315 64 34 64L34 68L34 72C13.0132 72 -4 54.9868 -4 34L-2.97237e-06 34ZM34 68L34 64C50.5685 64 64 50.5685 64 34L68 34L72 34C72 54.9868 54.9868 72 34 72L34 68ZM68 34L64 34C64 17.4315 50.5685 4 34 4L34 -2.97237e-06L34 -4C54.9868 -4 72 13.0132 72 34L68 34Z" fill="url(#paint0_linear_5346_151230)" mask="url(#path-1-inside-1_5346_151230)"/>
<defs>
<linearGradient id="paint0_linear_5346_151230" x1="68" y1="71.5" x2="1.40202e-06" y2="8.38306e-07" gradientUnits="userSpaceOnUse">
<stop stop-color="#0D9488"/>
<stop offset="1" stop-color="#2DD4BF"/>
</linearGradient>
</defs>
</svg>

