<svg xmlns="http://www.w3.org/2000/svg" width="78" height="78" fill="none"><path fill="url(#a)" d="M39 0a39 39 0 1 1 0 78 39 39 0 0 1 0-78Zm0 3a36 36 0 1 0 0 72 36 36 0 0 0 0-72Z"/><path fill="#155E75" d="M39 0a39 39 0 1 1 0 78 39 39 0 0 1 0-78Zm0 3a36 36 0 1 0 0 72 36 36 0 0 0 0-72Z"/><defs><radialGradient id="a" cx="0" cy="0" r="1" gradientTransform="matrix(0 81 -81 0 40.7 -3)" gradientUnits="userSpaceOnUse"><stop stop-color="#0C4A6E"/><stop offset="1" stop-color="#06B6D4"/></radialGradient></defs></svg>

