<svg xmlns="http://www.w3.org/2000/svg" width="68" height="68" fill="none"><g clip-path="url(#a)"><g clip-path="url(#b)"><path fill="url(#c)" d="M0 0h68v68H0z"/></g></g><mask id="d" fill="#fff"><path d="M34 0a34 34 0 1 0 0 68 34 34 0 0 0 0-68Z"/></mask><path fill="#164E63" d="M34 0v-4 4ZM0 34h-4 4Zm34 34v4-4Zm34-34h4-4ZM34 0v4A30 30 0 0 0 4 34h-8C-4 13 13-4 34-4v4ZM0 34h4a30 30 0 0 0 30 30v8C13 72-4 55-4 34h4Zm34 34v-4a30 30 0 0 0 30-30h8c0 21-17 38-38 38v-4Zm34-34h-4A30 30 0 0 0 34 4v-8c21 0 38 17 38 38h-4Z" mask="url(#d)"/><defs><clipPath id="a"><path fill="#fff" d="M0 34a34 34 0 1 1 68 0 34 34 0 0 1-68 0Z"/></clipPath><clipPath id="b"><path fill="#fff" d="M0 0h68v68H0z"/></clipPath><radialGradient id="c" cx="0" cy="0" r="1" gradientTransform="matrix(0 34 -34 0 34 34)" gradientUnits="userSpaceOnUse"><stop offset=".3" stop-color="#071C2E"/><stop offset="1" stop-color="#082F49"/></radialGradient></defs></svg>