<svg xmlns="http://www.w3.org/2000/svg" width="68" height="68" fill="none"><g clip-path="url(#a)"><g clip-path="url(#b)"><path fill="url(#c)" d="M0 0h68v68H0z"/></g></g><mask id="e" fill="#fff"><path d="M33.1 0A34 34 0 0 0 0 34v.9A34 34 0 0 0 34 68h.9A34 34 0 0 0 34 0h-.9Zm.9 4a30 30 0 1 1 0 60 30 30 0 0 1 0-60Z"/></mask><path fill="url(#d)" d="M33.1 0v-4 4ZM0 34h-4 4Zm0 .9h-4 4ZM34 68v4-4Zm.9 0v4-4ZM68 34h4-4ZM34 0v-4 4Zm0 4V0v4Zm30 30h4-4ZM34 64v4-4ZM4 34H0h4ZM33.1 0l.1 4A30 30 0 0 0 4 34h-8A38 38 0 0 1 33-4l.1 4ZM0 34h4v.8H0l-4 .1V34h4Zm0 .9 4-.1A30 30 0 0 0 34 64v8A38 38 0 0 1-4 35l4-.1ZM34 68v-4h.8v4l.1 4H34v-4Zm.9 0-.1-4A30 30 0 0 0 64 34h8a38 38 0 0 1-37 38l-.1-4ZM68 34h-4A30 30 0 0 0 34 4v-8c21 0 38 17 38 38h-4ZM34 0v4h-.8V0L33-4h.9v4Zm0 4V0a34 34 0 0 1 34 34h-8A26 26 0 0 0 34 8V4Zm30 30h4a34 34 0 0 1-34 34v-8a26 26 0 0 0 26-26h4ZM34 64v4A34 34 0 0 1 0 34h8a26 26 0 0 0 26 26v4ZM4 34H0A34 34 0 0 1 34 0v8A26 26 0 0 0 8 34H4Z" mask="url(#e)"/><defs><clipPath id="a"><path fill="#fff" d="M0 34a34 34 0 1 1 68 0 34 34 0 0 1-68 0Z"/></clipPath><clipPath id="b"><path fill="#fff" d="M0 0h68v68H0z"/></clipPath><radialGradient id="c" cx="0" cy="0" r="1" gradientTransform="matrix(0 34 -34 0 34 34)" gradientUnits="userSpaceOnUse"><stop offset=".6" stop-color="#0C4A6E"/><stop offset="1" stop-color="#0E365A"/></radialGradient><linearGradient id="d" x1="34" x2="34" y1="0" y2="68" gradientUnits="userSpaceOnUse"><stop stop-color="#0891B2"/><stop offset="1" stop-color="#155E75"/></linearGradient></defs></svg>