<svg xmlns="http://www.w3.org/2000/svg" width="56" height="56" fill="none"><path fill="url(#tray-hover-gradient)" d="M28 0a28 28 0 1 1 0 56 28 28 0 0 1 0-56Zm0 2a26 26 0 1 0 0 52 26 26 0 0 0 0-52Z"/><path fill="#155E75" d="M28 0a28 28 0 1 1 0 56 28 28 0 0 1 0-56Zm0 2a26 26 0 1 0 0 52 26 26 0 0 0 0-52Z"/><defs><radialGradient id="tray-hover-gradient" cx="0" cy="0" r="1" gradientTransform="rotate(90 15.7 13.5) scale(58.2)" gradientUnits="userSpaceOnUse"><stop stop-color="#0C4A6E"/><stop offset="1" stop-color="#06B6D4"/></radialGradient></defs></svg>

